<?xml version="1.0" encoding="utf-8"?>
<!-- Generator: Adobe Illustrator 24.3.0, SVG Export Plug-In . SVG Version: 6.00 Build 0)  -->
<svg version="1.1" id="Layer_1" xmlns="http://www.w3.org/2000/svg" xmlns:xlink="http://www.w3.org/1999/xlink" x="0px" y="0px"
	 viewBox="0 0 500 500" style="enable-background:new 0 0 500 500;" xml:space="preserve">
<style type="text/css">
	.st0{fill:#848484;}
</style>
<g>
	<path class="st0" d="M195.64,438.28v16h-32.57c-22.05,0-40-17.95-40-40v-32.57h16v32.57c0,13.23,10.77,24,24,24H195.64z"/>
	<path class="st0" d="M376.93,381.71v32.57c0,22.05-17.95,40-40,40h-32.57v-16h32.57c13.23,0,24-10.77,24-24v-32.57H376.93z"/>
</g>
<path class="st0" d="M238.35,216.23c0-1.94-1.56-3.49-3.49-3.49s-3.49,1.56-3.49,3.49v5.82c-5.14,0-9.32,4.18-9.32,9.32h-5.82
	c-1.94,0-3.49,1.56-3.49,3.49s1.56,3.49,3.49,3.49h5.82v8.15h-5.82c-1.94,0-3.49,1.56-3.49,3.49s1.56,3.49,3.49,3.49h5.82v8.15
	h-5.82c-1.94,0-3.49,1.56-3.49,3.49s1.56,3.49,3.49,3.49h5.82c0,5.14,4.18,9.32,9.32,9.32v5.82c0,1.94,1.56,3.49,3.49,3.49
	s3.49-1.56,3.49-3.49v-5.82h8.15v5.82c0,1.94,1.56,3.49,3.49,3.49s3.49-1.56,3.49-3.49v-5.82h8.15v5.82c0,1.94,1.56,3.49,3.49,3.49
	s3.49-1.56,3.49-3.49v-5.82c5.14,0,9.32-4.18,9.32-9.32h5.82c1.94,0,3.49-1.56,3.49-3.49s-1.56-3.49-3.49-3.49h-5.82v-8.15h5.82
	c1.94,0,3.49-1.56,3.49-3.49s-1.56-3.49-3.49-3.49h-5.82v-8.15h5.82c1.94,0,3.49-1.56,3.49-3.49s-1.56-3.49-3.49-3.49h-5.82
	c0-5.14-4.18-9.32-9.32-9.32v-5.82c0-1.94-1.56-3.49-3.49-3.49s-3.49,1.56-3.49,3.49v5.82h-8.15v-5.82c0-1.94-1.56-3.49-3.49-3.49
	s-3.49,1.56-3.49,3.49v5.82h-8.15V216.23z M236.03,231.37h27.95c2.58,0,4.66,2.08,4.66,4.66v27.95c0,2.58-2.08,4.66-4.66,4.66
	h-27.95c-2.58,0-4.66-2.08-4.66-4.66v-27.95C231.37,233.45,233.45,231.37,236.03,231.37z M263.97,236.03h-27.95v27.95h27.95V236.03z
	"/>
<g>
	<path class="st0" d="M197.05,317.69v3.01h-3.62v10.59h-3.78V320.7h-3.59v-3.01H197.05z"/>
	<path class="st0" d="M207.06,329.06h-4.82l-0.73,2.22h-3.97l4.96-13.59h4.36l4.94,13.59h-3.99L207.06,329.06z M206.11,326.17
		l-1.47-4.4l-1.45,4.4H206.11z"/>
	<path class="st0" d="M223.19,324.46c-0.38,0.67-0.95,1.21-1.72,1.62c-0.76,0.4-1.7,0.61-2.81,0.61h-1.87v4.59h-3.78v-13.59h5.65
		c1.09,0,2.02,0.19,2.79,0.58c0.76,0.39,1.34,0.92,1.73,1.6s0.58,1.46,0.58,2.35C223.76,323.04,223.57,323.79,223.19,324.46z
		 M219.9,322.22c0-0.99-0.53-1.49-1.6-1.49h-1.5v2.95h1.5C219.37,323.68,219.9,323.2,219.9,322.22z"/>
	<path class="st0" d="M239.2,317.69v3.01h-3.62v10.59h-3.78V320.7h-3.59v-3.01H239.2z"/>
	<path class="st0" d="M243.62,330.52c-1.07-0.6-1.91-1.43-2.54-2.49s-0.94-2.26-0.94-3.6c0-1.34,0.31-2.54,0.94-3.6
		s1.47-1.89,2.54-2.48c1.07-0.59,2.24-0.89,3.51-0.89c1.29,0,2.46,0.3,3.52,0.89c1.06,0.59,1.9,1.42,2.52,2.48s0.93,2.26,0.93,3.6
		c0,1.34-0.31,2.54-0.93,3.6s-1.46,1.89-2.53,2.49c-1.07,0.6-2.24,0.9-3.51,0.9S244.68,331.12,243.62,330.52z M249.41,326.96
		c0.56-0.63,0.84-1.47,0.84-2.53c0-1.08-0.28-1.93-0.84-2.55c-0.56-0.62-1.32-0.94-2.29-0.94c-0.98,0-1.74,0.31-2.29,0.94
		c-0.55,0.62-0.83,1.48-0.83,2.55c0,1.07,0.28,1.91,0.83,2.54c0.55,0.62,1.32,0.94,2.29,0.94
		C248.09,327.91,248.85,327.59,249.41,326.96z"/>
	<path class="st0" d="M260.7,330.29c-1.02-0.75-1.56-1.83-1.64-3.23h4.03c0.04,0.48,0.18,0.82,0.42,1.04s0.56,0.33,0.95,0.33
		c0.35,0,0.63-0.09,0.86-0.26c0.22-0.17,0.34-0.41,0.34-0.72c0-0.4-0.19-0.71-0.56-0.93c-0.37-0.22-0.98-0.46-1.81-0.73
		c-0.89-0.3-1.6-0.58-2.15-0.86c-0.55-0.28-1.02-0.68-1.43-1.21c-0.41-0.53-0.61-1.23-0.61-2.09c0-0.87,0.22-1.62,0.66-2.25
		c0.44-0.62,1.04-1.1,1.81-1.42s1.65-0.48,2.62-0.48c1.58,0,2.84,0.37,3.79,1.11c0.95,0.74,1.45,1.78,1.51,3.11h-4.11
		c-0.01-0.41-0.14-0.72-0.38-0.92c-0.24-0.21-0.54-0.31-0.92-0.31c-0.28,0-0.51,0.08-0.69,0.25c-0.18,0.17-0.27,0.41-0.27,0.71
		c0,0.26,0.1,0.48,0.3,0.67c0.2,0.19,0.45,0.35,0.74,0.48c0.29,0.13,0.73,0.31,1.31,0.51c0.86,0.3,1.57,0.59,2.13,0.88
		c0.56,0.29,1.04,0.69,1.45,1.21c0.41,0.52,0.61,1.18,0.61,1.98c0,0.81-0.2,1.54-0.61,2.18c-0.4,0.64-0.99,1.15-1.75,1.52
		s-1.67,0.56-2.71,0.56C263.02,331.42,261.72,331.04,260.7,330.29z"/>
	<path class="st0" d="M271.8,320.88c0.56-1.05,1.35-1.86,2.38-2.45s2.21-0.88,3.55-0.88c1.7,0,3.12,0.45,4.28,1.36
		s1.9,2.14,2.24,3.69h-4.07c-0.24-0.51-0.58-0.91-1.01-1.18c-0.43-0.27-0.93-0.41-1.5-0.41c-0.87,0-1.57,0.31-2.09,0.94
		c-0.52,0.62-0.78,1.46-0.78,2.5c0,1.05,0.26,1.89,0.78,2.52c0.52,0.62,1.22,0.94,2.09,0.94c0.57,0,1.06-0.14,1.5-0.41
		c0.43-0.27,0.77-0.66,1.01-1.18h4.07c-0.33,1.56-1.08,2.79-2.24,3.69s-2.58,1.36-4.28,1.36c-1.34,0-2.52-0.29-3.55-0.88
		s-1.82-1.4-2.38-2.45c-0.56-1.05-0.84-2.25-0.84-3.6C270.96,323.12,271.24,321.93,271.8,320.88z"/>
	<path class="st0" d="M294.64,329.06h-4.82l-0.73,2.22h-3.97l4.96-13.59h4.36l4.94,13.59h-3.99L294.64,329.06z M293.69,326.17
		l-1.47-4.4l-1.45,4.4H293.69z"/>
	<path class="st0" d="M313.19,331.28h-3.78l-5.03-7.6v7.6h-3.78v-13.59h3.78l5.03,7.69v-7.69h3.78V331.28z"/>
</g>
<path class="st0" d="M195.64,45.72v16h-32.57c-13.23,0-24,10.77-24,24v32.57h-16V85.72c0-22.06,17.95-40,40-40H195.64z"/>
<path class="st0" d="M376.93,85.72v32.57h-16V85.72c0-13.23-10.77-24-24-24h-32.57v-16h32.57
	C358.98,45.72,376.93,63.66,376.93,85.72z"/>
</svg>
